<svg width="235" height="43" viewBox="0 0 235 43" fill="none" xmlns="http://www.w3.org/2000/svg">
<path d="M32.1255 9.272H14.0135V0.311996H32.1255V9.272ZM32.1255 26.104H14.0135V17.144H32.1255V26.104ZM10.4295 43H0.8935V0.311996H10.4295V43ZM74.3125 43H64.7765V37.176C64.7765 36.28 64.5205 35.512 64.3285 35.064L50.0565 0.311996H59.8485L73.7365 32.824C74.2485 33.976 74.3125 35 74.3125 36.088V43ZM59.5925 33.016H46.1525L45.2565 35.32C45.0645 35.768 44.8085 36.088 44.8085 36.984V43H35.6565V36.216C35.6565 35.128 35.7205 34.168 36.2325 33.016L48.0725 4.984L52.7445 16.312L49.5445 24.696H56.2005L59.5925 33.016ZM112.04 7.608L105.832 13.816L101.48 9.464C101.224 9.208 101.096 9.08 100.712 9.08H97.1915V0.311996H102.952C104.168 0.311996 105.256 0.759998 106.152 1.656L112.04 7.608ZM112.552 33.208C112.552 34.424 112.104 35.512 111.208 36.408L105.96 41.656C105.064 42.552 103.976 43 102.76 43H97.1915V34.232H100.392C100.776 34.232 101.032 34.104 101.288 33.848L103.208 31.928C103.464 31.672 103.592 31.352 103.592 31.032V28.856C103.592 27.96 103.464 27.768 102.824 27.64C95.7195 26.232 81.6395 23.16 81.6395 23.16C78.8875 22.584 78.1835 20.728 78.1835 18.424V9.784C78.1835 8.248 79.2715 7.16 80.1675 6.264L84.6475 1.784C85.9915 0.439999 87.3355 0.311996 88.5515 0.311996H93.6075V9.08H90.3435C89.9595 9.08 89.7035 9.208 89.4475 9.464L87.5275 11.384C87.2715 11.64 87.1435 11.96 87.1435 12.28V14.072C87.1435 14.968 87.3355 15.16 87.9755 15.288L109.096 19.768C111.784 20.344 112.552 22.2 112.552 24.504V33.208ZM93.6075 43H86.8875C85.6715 43 84.5835 42.552 83.6875 41.656L77.7355 35.768L83.9435 29.56L88.2955 33.912C88.5515 34.168 88.8075 34.232 89.1915 34.232H93.6075V43ZM152.501 43H142.965V26.104H131.701V17.144H142.965V0.311996H152.501V43ZM128.117 43H118.581V0.311996H128.117V43ZM193.314 33.208C193.314 34.424 192.866 35.512 191.97 36.408L186.722 41.656C185.826 42.552 184.738 43 183.522 43H178.146V34.232H180.642C181.026 34.232 181.41 34.104 181.666 33.848L183.522 31.992C183.778 31.736 183.906 31.416 183.906 31.096V0.311996H193.314V33.208ZM174.562 43H169.186C167.97 43 166.882 42.552 165.986 41.656L160.738 36.408C159.842 35.512 159.394 34.424 159.394 33.208V0.311996H168.802V31.096C168.802 31.416 168.93 31.736 169.186 31.992L171.042 33.848C171.298 34.104 171.682 34.232 172.066 34.232H174.562V43ZM234.126 28.6L225.038 18.104V0.311996H234.126V28.6ZM234.126 43H224.59V37.944C224.59 37.688 224.462 37.304 224.206 37.048L201.678 11C200.782 9.912 200.206 8.888 200.206 7.544V0.311996H209.742V5.432C209.742 5.688 209.934 6.072 210.19 6.328L232.654 32.376C233.55 33.464 234.126 34.488 234.126 35.832V43ZM209.358 43H200.206V14.84L209.358 25.4V43Z" fill="black"/>
</svg>
